<svg width="40" height="40" viewBox="0 0 40 40" fill="none" xmlns="http://www.w3.org/2000/svg">
<g clip-path="url(#clip0_2279_8017)">
<g clip-path="url(#clip1_2279_8017)">
<path d="M34.87 22.9398V30.4598C34.87 33.1098 33.5 34.8798 30.31 34.8798H23.01C19.82 34.8798 18.45 33.1098 18.45 30.4598V22.9398C18.45 20.2898 19.82 18.5198 23.01 18.5198H30.31C33.5 18.5198 34.87 20.2898 34.87 22.9398Z" fill="#FFCB09"/>
<path d="M14.24 9.63977C13.96 9.63977 13.74 9.41977 13.74 9.13977V5.38977C13.74 5.10977 13.96 4.88977 14.24 4.88977C14.52 4.88977 14.74 5.10977 14.74 5.38977V9.13977C14.74 9.41977 14.52 9.63977 14.24 9.63977Z" fill="#121212"/>
<path d="M26.02 9.63977C25.74 9.63977 25.52 9.41977 25.52 9.13977V5.38977C25.52 5.10977 25.74 4.88977 26.02 4.88977C26.3 4.88977 26.52 5.10977 26.52 5.38977V9.13977C26.52 9.41977 26.3 9.63977 26.02 9.63977Z" fill="#121212"/>
<path d="M14.97 21.5398C14.84 21.5398 14.71 21.4798 14.62 21.3898C14.53 21.2998 14.47 21.1698 14.47 21.0398C14.47 20.9098 14.53 20.7798 14.62 20.6798C14.81 20.4898 15.14 20.4998 15.33 20.6798C15.42 20.7798 15.47 20.9098 15.47 21.0398C15.47 21.1698 15.42 21.2998 15.33 21.3898C15.23 21.4798 15.1 21.5398 14.97 21.5398Z" fill="#121212"/>
<path d="M20.13 21.5398C20 21.5398 19.87 21.4798 19.77 21.3898C19.68 21.2998 19.63 21.1698 19.63 21.0398C19.63 20.9098 19.68 20.7798 19.77 20.6798C19.96 20.4898 20.29 20.4998 20.48 20.6798C20.53 20.7298 20.56 20.7798 20.59 20.8398C20.61 20.9098 20.63 20.9698 20.63 21.0398C20.63 21.1698 20.57 21.2998 20.48 21.3898C20.39 21.4798 20.26 21.5398 20.13 21.5398Z" fill="#121212"/>
<path d="M14.97 26.5798C14.84 26.5798 14.71 26.5198 14.62 26.4298C14.53 26.3298 14.47 26.2098 14.47 26.0698C14.47 25.9398 14.53 25.8098 14.62 25.7198C14.81 25.5298 15.14 25.5298 15.33 25.7198C15.42 25.8098 15.47 25.9398 15.47 26.0698C15.47 26.2098 15.42 26.3298 15.33 26.4298C15.23 26.5198 15.1 26.5798 14.97 26.5798Z" fill="#121212"/>
<path d="M32.87 15.1797H6.87C6.59 15.1797 6.37 14.9597 6.37 14.6797C6.37 14.3997 6.59 14.1797 6.87 14.1797H32.87C33.15 14.1797 33.37 14.3997 33.37 14.6797C33.37 14.9597 33.15 15.1797 32.87 15.1797Z" fill="#121212"/>
<path d="M25.09 33.7698H14.24C9.17 33.7698 6.38 31.0398 6.38 26.0698V13.8298C6.38 8.86976 9.17 6.12976 14.24 6.12976H26.02C31.09 6.12976 33.88 8.85976 33.88 13.8298V25.1398C33.88 25.3498 33.75 25.5298 33.56 25.6098C33.37 25.6798 33.15 25.6298 33.01 25.4798C31.99 24.3398 30.51 23.6898 28.96 23.6898C25.99 23.6898 23.57 26.0498 23.57 28.9498C23.57 29.9098 23.84 30.8398 24.35 31.6498C24.63 32.1198 25 32.5498 25.41 32.8798C25.57 33.0098 25.64 33.2398 25.56 33.4398C25.48 33.6398 25.3 33.7698 25.09 33.7698ZM14.24 7.13976C9.75 7.13976 7.38 9.45976 7.38 13.8398V26.0798C7.38 30.4598 9.75 32.7798 14.24 32.7798H23.91C23.76 32.5898 23.63 32.3898 23.5 32.1798C22.9 31.2198 22.58 30.1098 22.58 28.9598C22.58 25.5098 25.45 22.6998 28.97 22.6998C30.4 22.6998 31.78 23.1698 32.89 24.0198V13.8398C32.89 9.45976 30.52 7.13976 26.03 7.13976H14.25H14.24Z" fill="#121212"/>
<path d="M28.96 35.2098C27.48 35.2098 26.04 34.7098 24.91 33.7898C23.42 32.6098 22.57 30.8398 22.57 28.9498C22.57 27.0598 23.45 25.2398 24.98 24.0598C26.1 23.1798 27.52 22.6898 28.96 22.6898C30.89 22.6898 32.69 23.5298 33.9 24.9798C34.83 26.0798 35.35 27.4898 35.35 28.9498C35.35 30.7298 34.56 32.4498 33.18 33.6498C31.99 34.6598 30.49 35.2098 28.96 35.2098ZM28.96 23.6898C27.74 23.6898 26.54 24.0998 25.59 24.8498C24.3 25.8398 23.57 27.3298 23.57 28.9498C23.57 30.5698 24.29 32.0198 25.54 33.0098C26.49 33.7798 27.7 34.2098 28.96 34.2098C30.22 34.2098 31.5 33.7598 32.53 32.8898C33.69 31.8798 34.36 30.4398 34.36 28.9498C34.36 27.7298 33.93 26.5498 33.14 25.6298C32.12 24.3998 30.6 23.6898 28.97 23.6898H28.96Z" fill="#121212"/>
<path d="M28.19 30.6998C28.06 30.6998 27.94 30.6498 27.84 30.5598L26.56 29.3098C26.36 29.1198 26.36 28.7998 26.56 28.5998C26.75 28.3998 27.07 28.3998 27.27 28.5998L28.22 29.5198L30.65 27.3398C30.85 27.1498 31.17 27.1698 31.36 27.3798C31.54 27.5898 31.53 27.8998 31.32 28.0898L28.55 30.5798C28.45 30.6698 28.34 30.7098 28.22 30.7098L28.19 30.6998Z" fill="#121212"/>
</g>
</g>
<defs>
<clipPath id="clip0_2279_8017">
<rect width="40" height="40" fill="white" transform="translate(0 0.00976562)"/>
</clipPath>
<clipPath id="clip1_2279_8017">
<rect width="40" height="40" fill="white" transform="translate(0 0.00976562)"/>
</clipPath>
</defs>
</svg>
